<svg width="24" height="17" viewBox="0 0 24 17" fill="none" xmlns="http://www.w3.org/2000/svg">
<g clip-path="url(#clip0_207_5391)">
<path fill-rule="evenodd" clip-rule="evenodd" d="M9.90234 7.5433L9.87109 7.40354C9.4043 7.53714 8.93555 7.5803 8.46289 7.56386C7.92383 7.54536 7.38477 7.44876 6.8457 7.31927C6.58203 7.25555 6.35156 7.18772 6.13281 7.12195C5.64062 6.97602 5.20703 6.84859 4.60938 6.84242C4.60352 6.84242 4.59961 6.84242 4.59375 6.84242L2.43164 6.64922L2.00586 7.2946C3.24805 7.80023 4.79102 8.15375 6.27539 8.29146C7.67578 8.42095 9.01758 8.36134 9.99609 8.05715L9.90234 7.5433ZM20.4395 9.50824C22.4062 9.50824 24 11.1854 24 13.2552C24 15.3249 22.4062 17.0021 20.4395 17.0021C18.4727 17.0021 16.8789 15.3249 16.8789 13.2552C16.8789 12.0055 17.459 10.8997 18.3516 10.2194L17.3184 8.08181L15.4219 14.0835H14.584C14.584 14.1082 14.584 14.1328 14.5801 14.1554C14.5098 14.5624 14.3906 14.8913 14.2227 15.1379C14.0352 15.4133 13.791 15.5901 13.4883 15.6661C13.1191 15.7586 12.084 15.5839 11.4082 15.4709C11.2285 15.4401 11.0742 15.4154 10.9746 15.401L8.74609 15.0865L8.73633 15.1235C8.68359 15.3455 8.47852 15.4914 8.25977 15.4544L6.87695 15.216C6.72852 15.4627 6.55273 15.6888 6.35547 15.8922C5.70117 16.5664 4.79492 16.9836 3.79688 16.9836C2.79883 16.9836 1.89453 16.5664 1.23828 15.8922C0.582031 15.216 0.175781 14.2829 0.175781 13.2531C0.175781 12.2234 0.582031 11.2902 1.23828 10.614C1.89258 9.93987 2.79883 9.52263 3.79688 9.52263C4.79492 9.52263 5.69922 9.93987 6.35547 10.614C7.01172 11.2902 7.41797 12.2234 7.41797 13.2531C7.41797 13.3682 7.41211 13.4813 7.40234 13.5923L8.60742 13.9437C8.81445 14.0033 8.94336 14.2192 8.91211 14.437L11.0547 14.7392C11.166 14.7556 11.3223 14.7803 11.5059 14.8111C12.1309 14.9159 13.0898 15.0763 13.3418 15.0146C13.4902 14.9776 13.6113 14.8872 13.707 14.7474C13.8164 14.5871 13.8965 14.363 13.9492 14.0794H8.86133C7.31445 8.53399 3.44727 7.77351 1.22852 9.759L0 9.74255C0.367188 8.8053 1.23047 8.19691 2.2793 7.87011C2.04688 7.78584 1.82422 7.69746 1.60938 7.60291C1.5918 7.59674 1.57617 7.58852 1.56055 7.57619C1.46484 7.50631 1.44141 7.3686 1.50781 7.26788L2.15039 6.29364C2.19141 6.22786 2.26562 6.18676 2.3457 6.19292L4.62891 6.3964C5.2793 6.40668 5.73242 6.54028 6.24805 6.69238C6.46289 6.75609 6.68945 6.82187 6.94141 6.88353C7.45703 7.00891 7.9707 7.1014 8.47656 7.11784C8.96289 7.13428 9.44727 7.0829 9.92578 6.92052C10.082 6.77459 10.2402 6.63483 10.4043 6.50123C10.5742 6.36146 10.7539 6.22581 10.9453 6.09221C11.4551 5.73457 11.9785 5.44888 12.5313 5.25362C13.0879 5.05836 13.6719 4.95559 14.3027 4.96792C14.6914 4.97614 15.0684 5.0378 15.4258 5.16729C15.6719 5.25773 15.9102 5.37899 16.1367 5.5352C16.1387 5.49409 16.1523 5.45299 16.1758 5.4201L15.0488 4.53012H13.2871C13.082 4.53012 12.918 4.35542 12.918 4.14166C12.918 3.92584 13.084 3.75319 13.2871 3.75319H14.9102V2.20344H14.9121V2.19522C14.9141 2.14384 14.9121 2.09656 14.9062 2.05545C14.9023 2.02051 14.8945 1.98763 14.8848 1.95474C14.8535 1.85403 14.7871 1.81086 14.6973 1.75331C14.6914 1.75126 14.6875 1.74715 14.6816 1.74509C14.6719 1.73893 14.6621 1.73276 14.6387 1.71837L14.623 1.98557C14.6133 2.14384 14.4844 2.2651 14.332 2.25483C14.1816 2.24455 14.0664 2.10889 14.0762 1.94857L14.1777 0.265223C14.1875 0.106959 14.3164 -0.0143076 14.4688 -0.00403075C14.6191 0.00624612 14.7344 0.141901 14.7246 0.30222L14.6777 1.06887L14.8828 1.20042L14.959 1.24769C14.9648 1.24975 14.9688 1.25386 14.9727 1.25797C15.168 1.37718 15.3105 1.47173 15.4062 1.77798C15.4258 1.83964 15.4395 1.90747 15.4492 1.98352C15.457 2.05134 15.4609 2.12534 15.459 2.20344V3.88679L16.1738 4.44997L16.2383 4.37186L16.0703 4.24443C15.9766 4.17249 15.9551 4.03272 16.0234 3.93407C16.0293 3.92584 16.0352 3.91762 16.041 3.91146L16.6992 3.1037C16.7754 3.0112 16.9082 2.99887 16.9961 3.07903L17 3.08314L17.6152 3.61548C17.7051 3.69359 17.7188 3.83335 17.6445 3.9279L17.6406 3.93407L16.998 4.70483C16.9727 4.73566 16.9414 4.75622 16.9082 4.76855L16.6797 4.85076L16.8887 5.01519L16.8945 5.02136L16.957 4.98847C17.0605 4.93503 17.1875 4.98025 17.2402 5.08919L17.2441 5.09535L17.5449 5.69963C17.6895 5.35844 18.0117 5.12413 18.293 4.91859C18.3516 4.87543 18.4102 4.83226 18.4609 4.79321C18.6816 4.62056 18.8867 4.50957 19.0723 4.46024C19.2773 4.40475 19.4629 4.42119 19.6211 4.5034C19.7793 4.58768 19.9023 4.73361 19.9824 4.9412C20.0547 5.12824 20.0938 5.36461 20.0938 5.64825V6.46629C20.0938 6.47656 20.0938 6.4889 20.0918 6.49917C20.0703 6.86092 19.9922 7.12195 19.8691 7.29871C19.793 7.40765 19.7031 7.4837 19.5996 7.53303C19.4961 7.58236 19.3848 7.60085 19.2676 7.59469C19.0156 7.5803 18.7324 7.44259 18.4395 7.21444L18.2148 7.03974L19.541 9.6254C19.8262 9.54935 20.1289 9.50824 20.4395 9.50824ZM18.7129 9.97687C18.8477 9.89671 18.9883 9.82682 19.1348 9.76722L16.9824 5.52904C16.9766 5.53931 16.9707 5.54959 16.9629 5.55987C16.875 5.61742 16.7656 5.68936 16.6602 5.71402L18.7129 9.97687ZM2.50781 12.172L3.39062 12.4289C3.45508 12.396 3.52148 12.3714 3.59375 12.3549L3.64844 10.8751H3.63867L3.62109 10.8771C3.60547 10.8792 3.58984 10.8792 3.57422 10.8812H3.56836H3.56641C3.54883 10.8833 3.5332 10.8853 3.51562 10.8874L3.49805 10.8895C3.48633 10.8915 3.47461 10.8936 3.46484 10.8936L3.44531 10.8977C3.43359 10.8997 3.42187 10.9018 3.41211 10.9038L3.39453 10.908C3.38086 10.91 3.36719 10.9141 3.35352 10.9162L3.34375 10.9182C3.32617 10.9223 3.31055 10.9264 3.29297 10.9306L3.27734 10.9347C3.26563 10.9367 3.25391 10.9408 3.24219 10.9429L3.22266 10.9491L3.18945 10.9593L3.17188 10.9634C3.1582 10.9676 3.14453 10.9717 3.13281 10.9758L3.12305 10.9778C3.10742 10.984 3.0918 10.9881 3.07617 10.9943L3.05859 11.0004C3.04883 11.0046 3.03711 11.0087 3.02734 11.0128L3.00781 11.021L2.97852 11.0333L2.95898 11.0416C2.94922 11.0457 2.93945 11.0498 2.92969 11.0539L2.91211 11.0621C2.89844 11.0683 2.88281 11.0744 2.86914 11.0827L2.85156 11.0909L2.82422 11.1053L2.80273 11.1155L2.7793 11.1279L2.75781 11.1402L2.73438 11.1484L2.71484 11.1587H2.71289C2.69922 11.1669 2.6875 11.1731 2.67383 11.1813L2.65039 11.1957L2.63281 11.206C2.625 11.2101 2.61719 11.2163 2.60938 11.2224L2.5918 11.2348L2.56836 11.2512L2.55078 11.2635L2.52539 11.28L2.51953 11.2841C2.5 11.2985 2.48047 11.3129 2.46094 11.3272L2.44922 11.3355L2.42383 11.356L2.41016 11.3684C2.40234 11.3745 2.39453 11.3807 2.38672 11.3889L2.375 11.3992C2.3457 11.4239 2.31641 11.4506 2.28711 11.4773L2.28125 11.4814C2.27344 11.4896 2.26367 11.4978 2.25586 11.5061L2.24609 11.5163C2.23828 11.5246 2.23047 11.5328 2.2207 11.541L2.21094 11.5513C2.20312 11.5595 2.19531 11.5677 2.1875 11.5759L2.18359 11.5801C2.1543 11.6109 2.12695 11.6417 2.10156 11.6726L2.0957 11.6787C2.08789 11.689 2.08008 11.6993 2.07031 11.7095L2.06836 11.7157C2.03906 11.7507 2.01172 11.7877 1.98438 11.8267L2.50781 12.172ZM4.89453 12.8667L6.06641 13.2079C6.06055 12.8934 5.99609 12.5913 5.88477 12.3179L4.89453 12.8667ZM5.38477 14.9611L3.9668 14.7166L3.94531 15.6374L3.96875 15.6353H3.97852C3.99609 15.6333 4.01172 15.6333 4.0293 15.6312L4.04102 15.6291C4.05664 15.6271 4.07031 15.625 4.08594 15.623H4.09375C4.10938 15.6209 4.125 15.6189 4.14062 15.6168L4.15625 15.6148C4.17188 15.6127 4.1875 15.6086 4.20508 15.6065H4.20703C4.22266 15.6045 4.23828 15.6004 4.25391 15.5963L4.26562 15.5942C4.28125 15.5901 4.29688 15.588 4.3125 15.5839L4.32031 15.5819C4.33398 15.5778 4.34766 15.5757 4.36133 15.5716L4.37305 15.5675C4.38867 15.5634 4.4043 15.5593 4.41797 15.5552L4.42969 15.551C4.44336 15.5469 4.45898 15.5428 4.47266 15.5367L4.47656 15.5346H4.47852C4.49219 15.5305 4.50781 15.5243 4.52148 15.5202L4.53711 15.514C4.55078 15.5099 4.56445 15.5038 4.57812 15.4976L4.58984 15.4935C4.60156 15.4894 4.61133 15.4853 4.62305 15.4791L4.63867 15.4729C4.65234 15.4668 4.66406 15.4627 4.67773 15.4565L4.69531 15.4483L4.72266 15.4359L4.73828 15.4277C4.75 15.4216 4.76172 15.4154 4.77344 15.4092L4.79492 15.3989L4.81836 15.3866C4.82812 15.3804 4.83789 15.3763 4.84766 15.3702L4.86914 15.3578L4.89062 15.3455C4.90039 15.3393 4.91016 15.3352 4.91992 15.3291C4.92773 15.325 4.93555 15.3188 4.94531 15.3147L4.96484 15.3023L4.98633 15.288C4.99609 15.2818 5.00586 15.2756 5.01562 15.2695L5.03906 15.253L5.05273 15.2448C5.06641 15.2345 5.08008 15.2263 5.0918 15.216L5.09961 15.2098L5.12305 15.1914L5.13281 15.1852C5.14844 15.1729 5.16211 15.1626 5.17773 15.1502L5.18359 15.1441C5.19141 15.1379 5.19922 15.1297 5.20898 15.1235L5.21289 15.1215C5.22852 15.1091 5.24414 15.0947 5.25977 15.0824L5.26953 15.0742C5.29492 15.0516 5.31836 15.029 5.3418 15.0064C5.35547 14.992 5.36914 14.9776 5.38477 14.9611ZM3.54688 14.6446L2.20312 14.4124L1.91211 14.5788L1.91406 14.583C1.91992 14.5912 1.92578 14.5994 1.93164 14.6097L1.94336 14.6282L1.96094 14.6528L1.97266 14.6713C1.97852 14.6796 1.98437 14.6878 1.99023 14.696L2.00195 14.7124L2.01953 14.7371L2.0332 14.7536C2.03906 14.7618 2.04492 14.77 2.05273 14.7782C2.05859 14.7844 2.0625 14.7906 2.06836 14.7988C2.07422 14.8049 2.07812 14.8111 2.08398 14.8193C2.09375 14.8317 2.10547 14.844 2.11523 14.8563L2.13477 14.8789L2.15039 14.8954C2.15625 14.9015 2.16211 14.9077 2.16797 14.9159L2.18555 14.9365L2.20312 14.9529L2.22266 14.9735L2.24023 14.992L2.25781 15.0105L2.27734 15.029L2.29492 15.0454L2.31445 15.0619L2.33594 15.0804C2.3418 15.0865 2.34766 15.0906 2.35352 15.0968C2.36523 15.1071 2.37891 15.1174 2.39062 15.1276L2.40625 15.14C2.41406 15.1461 2.42188 15.1523 2.43164 15.1605L2.45117 15.177L2.4707 15.1934L2.49219 15.2098L2.51367 15.2263L2.53516 15.2427L2.55664 15.2571L2.57812 15.2715C2.58594 15.2777 2.59375 15.2818 2.60156 15.288L2.62109 15.3003C2.63086 15.3065 2.64062 15.3126 2.65039 15.3188L2.66602 15.3291C2.68164 15.3373 2.69531 15.3476 2.71094 15.3558L2.72656 15.364C2.73633 15.3702 2.74609 15.3763 2.75781 15.3804L2.77734 15.3907L2.80469 15.4051L2.82422 15.4154L2.85156 15.4298L2.87305 15.4401C2.88281 15.4442 2.89062 15.4483 2.90039 15.4524L2.91992 15.4606C2.92969 15.4647 2.94141 15.4688 2.95117 15.475L2.96875 15.4832C2.98242 15.4894 2.99805 15.4955 3.01172 15.4997L3.01758 15.5017H3.01953C3.03516 15.5079 3.05078 15.514 3.06836 15.5202L3.08398 15.5264C3.0957 15.5305 3.10547 15.5346 3.11719 15.5387L3.13477 15.5449C3.14648 15.549 3.1582 15.551 3.16797 15.5552L3.18555 15.5613L3.2168 15.5695L3.23828 15.5757C3.25 15.5778 3.26172 15.5819 3.27148 15.5839L3.28906 15.588C3.30078 15.5901 3.3125 15.5942 3.32617 15.5963L3.34375 15.6004C3.35938 15.6045 3.37305 15.6065 3.38867 15.6086L3.39453 15.6106C3.41211 15.6148 3.42969 15.6168 3.44531 15.6189L3.4668 15.623C3.47656 15.625 3.48828 15.6271 3.49805 15.6271L3.51953 15.6291L3.54688 14.6446ZM2.14648 12.5276L1.64062 12.5173L1.19141 12.5091L0.990234 13.2984L1.77344 13.8903L3.67969 14.2192L3.97852 14.2705L5.33984 14.5049L5.69531 14.5665L7.09375 14.807L8.29492 15.0146C8.35547 14.9077 8.45312 14.4822 8.49805 14.3836L8.5 14.3754L6.9707 13.9314L6.03516 13.6601L3.01172 12.7825L2.33594 12.5851L2.14648 12.5276ZM18.5684 5.34405C18.3164 5.52904 18.0215 5.7428 17.9668 5.98327C17.9414 6.09426 17.9355 6.15181 17.9512 6.18059C17.9688 6.21759 18.0312 6.26692 18.127 6.34091L18.7246 6.80337C18.9434 6.97191 19.1406 7.07468 19.291 7.08496C19.332 7.08701 19.3672 7.0829 19.3965 7.06851C19.4238 7.05618 19.4492 7.03152 19.4727 6.99863C19.541 6.89997 19.5879 6.72937 19.6016 6.47245V6.4704V5.65236C19.6016 5.43243 19.5762 5.26184 19.5293 5.14057C19.4961 5.05424 19.4512 4.9967 19.4004 4.96997C19.3496 4.94325 19.2793 4.9412 19.1914 4.96381C19.0664 4.99669 18.918 5.07891 18.75 5.21045C18.6934 5.25362 18.6328 5.29678 18.5684 5.34405ZM16.125 6.57728L16.1035 6.06138C15.8496 5.84762 15.5762 5.69347 15.2871 5.5907C14.9687 5.4756 14.6367 5.4201 14.293 5.41394C13.7129 5.4016 13.1738 5.49615 12.6621 5.67702C12.1465 5.8579 11.6562 6.12715 11.1777 6.46423C11.0039 6.5855 10.832 6.71704 10.6621 6.85681C10.5254 6.9678 10.3945 7.08084 10.2695 7.198L10.3125 7.43231L10.4395 7.99549L15.2754 8.01398C15.2812 8.01398 15.2891 8.01398 15.2949 8.01398C15.4238 8.02632 15.5352 8.0181 15.6309 7.99137C15.7168 7.96465 15.791 7.92149 15.8516 7.86394C16.1641 7.56386 16.1445 7.05001 16.127 6.60194L16.125 6.57728ZM8.9375 9.49385L10.7949 9.46713C10.9297 9.46508 11.0566 9.58634 11.041 9.72611L10.9023 10.9861C10.8867 11.1279 10.791 11.245 10.6562 11.245H9.48242C9.34766 11.245 9.29297 11.1155 9.23633 10.9861L8.68945 9.75283C8.63281 9.62334 8.80078 9.49591 8.9375 9.49385ZM13.293 9.33764H14.9727C15.1074 9.33764 15.25 9.45891 15.2188 9.59662L14.8633 11.1875C14.832 11.3252 14.752 11.4465 14.6172 11.4465H13.4434C13.3086 11.4465 13.2109 11.3293 13.1973 11.1875L13.0449 9.59662C13.0332 9.4548 13.1582 9.33764 13.293 9.33764ZM5.68359 11.9274C5.32422 11.3642 4.74219 10.9717 4.07031 10.8874L4.01758 12.3652C4.17578 12.4084 4.31641 12.4947 4.42773 12.6119L4.43555 12.6201L5.68359 11.9274ZM2.33984 15.0824C2.3457 15.0886 2.35156 15.0927 2.35742 15.0989L2.33984 15.0824ZM20.334 12.3344L20.3887 10.834C19.6797 10.8504 19.0508 11.2039 18.6387 11.7486L19.8984 12.5831C20.0156 12.4598 20.166 12.3734 20.334 12.3344ZM20.8086 10.8627L20.7559 12.3426C20.9121 12.3858 21.0547 12.4721 21.166 12.5892L21.1738 12.5975L22.3691 11.9336C22.0234 11.3745 21.4629 10.9737 20.8086 10.8627ZM22.5664 12.3282L21.3906 12.9818C21.416 13.0702 21.4316 13.1648 21.4316 13.2614C21.4316 13.3477 21.4219 13.4299 21.4004 13.508L22.5332 14.2582C22.666 13.952 22.7402 13.6108 22.7402 13.2531C22.7402 12.9263 22.6797 12.6139 22.5664 12.3282ZM22.3223 14.6446L21.1973 13.8985C21.1875 13.9109 21.1758 13.9211 21.166 13.9335C21.0449 14.0609 20.8926 14.1513 20.7207 14.1904L20.6855 15.66C21.3613 15.586 21.9512 15.2016 22.3223 14.6446ZM20.2637 15.6661L20.2988 14.1801C20.1426 14.1369 20.002 14.0506 19.8906 13.9335C19.875 13.915 19.8574 13.8985 19.8438 13.88L18.5449 14.6241C18.9258 15.2099 19.5488 15.6106 20.2637 15.6661ZM18.3379 14.2356L19.6504 13.4833C19.6348 13.4114 19.625 13.3374 19.625 13.2614C19.625 13.1545 19.6426 13.0517 19.6719 12.9572L18.4062 12.1186C18.2344 12.4577 18.1387 12.8421 18.1387 13.2531C18.1406 13.6025 18.2109 13.9355 18.3379 14.2356ZM20.8906 12.8791C20.7988 12.7825 20.6699 12.7228 20.5273 12.7228C20.3848 12.7228 20.2578 12.7825 20.1641 12.8811C20.1406 12.9058 20.1191 12.9325 20.1016 12.9613C20.0996 12.9654 20.0977 12.9695 20.0938 12.9736C20.0918 12.9777 20.0879 12.9818 20.0859 12.9859C20.041 13.0661 20.0156 13.1606 20.0156 13.2593C20.0156 13.4093 20.0723 13.5429 20.166 13.6416C20.2578 13.7382 20.3867 13.7999 20.5293 13.7999C20.6699 13.7999 20.7988 13.7403 20.8926 13.6416C20.9199 13.6128 20.9434 13.582 20.9629 13.5491C20.9688 13.5306 20.9766 13.5121 20.9863 13.4936C20.9902 13.4854 20.9961 13.4792 21 13.4731C21.0273 13.4073 21.041 13.3353 21.041 13.2593C21.041 13.1113 20.9844 12.9777 20.8906 12.8791Z" fill="#FFD02E"/>
</g>
<defs>
<clipPath id="clip0_207_5391">
<rect width="24" height="17" fill="white"/>
</clipPath>
</defs>
</svg>
