<svg width="24" height="14" viewBox="0 0 24 14" fill="none" xmlns="http://www.w3.org/2000/svg">
<path d="M12.5795 0.0922966C12.2651 0.243977 12.1513 0.645257 12.3246 0.975737C12.4763 1.27382 12.6119 1.30094 13.8097 1.30094H14.8993L15.5173 2.53142L16.1353 3.76742L14.7476 6.51542L13.3599 9.26894H11.8801C10.5035 9.26894 10.4003 9.26342 10.4003 9.17126C10.4003 8.80814 10.6333 6.33086 10.682 6.17918C10.785 5.84846 10.9856 5.49614 11.2621 5.14934C11.414 4.95974 11.5494 4.72646 11.571 4.6235C11.6523 4.18454 11.4301 3.71822 11.0451 3.51782C10.8229 3.40406 10.7742 3.40406 7.09378 3.40406C3.40786 3.40406 3.36466 3.40406 3.14242 3.51782C2.68162 3.75638 2.4757 4.34726 2.69242 4.83494C2.8117 5.11142 3.08818 5.34998 3.34834 5.3987C3.55426 5.44214 3.51634 5.49086 3.21826 5.58302C2.8225 5.70758 2.07994 6.11966 1.7113 6.42326C1.01242 7.00334 0.649298 7.5887 0.242738 8.78654C-0.0987816 9.79478 -0.0824616 10.2013 0.307778 10.6348C0.611378 10.9708 0.844418 11.0577 1.48402 11.0577H2.03146L2.0965 11.4479C2.29714 12.6186 3.2077 13.551 4.38394 13.8004C5.86378 14.1148 7.3813 13.1771 7.77154 11.7028C7.81498 11.5401 7.8529 11.3289 7.8529 11.2312V11.0577H10.8505C12.7422 11.0577 13.9184 11.0361 14.043 11.0034C14.1567 10.971 14.3247 10.8789 14.4169 10.8028C14.5091 10.7214 15.219 9.71342 15.9887 8.55326C16.7639 7.39862 17.4035 6.45014 17.4195 6.45014C17.4519 6.45014 17.9075 7.3499 17.9562 7.5179C17.9886 7.61534 17.9507 7.68062 17.7719 7.83758C16.9967 8.5367 16.46 9.71846 16.4492 10.7483L16.4439 11.2252L16.6446 11.4148C16.9211 11.6641 17.2463 11.6749 17.5172 11.4364L17.7015 11.2737L17.7666 11.5773C17.9564 12.5421 18.7748 13.4257 19.7504 13.7238C20.222 13.8702 20.9646 13.881 21.3927 13.7509C22.4118 13.4365 23.1759 12.6397 23.4361 11.6262C23.6799 10.6669 23.3819 9.61526 22.6556 8.88902C22.3791 8.61254 22.3249 8.54198 22.4389 8.58014C22.6556 8.66702 22.9971 8.54774 23.1435 8.3363C23.3063 8.11406 23.3063 7.76726 23.1491 7.54502C22.9919 7.33358 22.2656 6.97046 21.6747 6.82406C21.2845 6.72662 21.1165 6.7103 20.5093 6.73742C20.1246 6.75374 19.7504 6.78614 19.6854 6.80246C19.5716 6.84038 19.5066 6.72662 18.6447 4.96502C17.745 3.13286 17.7234 3.08966 17.5662 3.08966C17.1272 3.08966 16.6556 2.78606 16.4442 2.3687C16.2275 1.92422 16.2762 1.2791 16.5579 0.970217C16.6338 0.888857 16.6338 0.856457 16.5471 0.693737C16.3736 0.357737 16.2383 0.205817 16.016 0.102858C15.8156 0.0106974 15.6421 -0.000103951 14.276 -0.000103951C12.986 0.000136375 12.7311 0.0164566 12.5795 0.0922966ZM21.2031 9.93566C21.6531 10.2013 21.8915 10.8191 21.729 11.3015C21.6205 11.6375 21.2737 11.9682 20.9322 12.0657C19.7017 12.4235 18.8833 10.8515 19.8697 10.0331C19.9835 9.93542 20.1515 9.83798 20.2383 9.81086C20.5203 9.72422 20.9322 9.77846 21.2031 9.93566ZM6.09682 11.2312C6.04258 11.5293 5.79322 11.8273 5.46802 11.9953C5.21866 12.1254 5.1265 12.147 4.88266 12.1199C4.36234 12.0712 3.93418 11.7025 3.8149 11.2038L3.77698 11.0574H4.95322H6.13474L6.09682 11.2312Z" fill="#FFD02E"/>
<path d="M17.2846 0.927046C16.6884 1.16561 16.542 1.97849 17.0244 2.42297C17.2251 2.61257 17.4202 2.65601 18.0488 2.65601H18.6396V1.76153V0.867286L18.0324 0.872806C17.6964 0.872806 17.3604 0.899926 17.2846 0.927046Z" fill="#FFD02E"/>
</svg>
