<svg width="24" height="24" viewBox="0 0 24 24" fill="none" xmlns="http://www.w3.org/2000/svg">
<g clip-path="url(#clip0_46_3265)">
<path d="M11.9471 14.9292C10.7892 14.9292 9.8418 15.8401 9.8418 16.9535V21.0527C9.8418 22.166 10.7892 23.077 11.9471 23.077C13.105 23.077 14.0523 22.166 14.0523 21.0527V16.9535C14.0523 15.8401 13.105 14.9292 11.9471 14.9292Z" fill="white"/>
<path d="M19.5796 2.53036H15.5269C15.0532 1.06275 13.6322 0 11.948 0C10.2637 0 8.84272 1.06275 8.36904 2.53036H4.36904C3.79009 2.53036 3.31641 2.98583 3.31641 3.54251C3.31641 4.09919 3.79009 4.55466 4.36904 4.55466H8.42167C8.68483 5.41498 9.26377 6.12348 10.0532 6.57895C7.21114 7.38866 5.10588 9.91903 5.10588 12.9049V18.2186C5.10588 19.1296 5.89535 19.8887 6.84272 19.8887H8.26377V17.004C8.26377 15.0303 9.94799 13.4109 12.0006 13.4109C14.0532 13.4109 15.7375 15.0304 15.7375 17.004V19.8887H17.1585C18.1059 19.8887 18.8954 19.1296 18.8954 18.2186V12.9555C18.8954 9.96959 16.7901 7.38866 13.9479 6.62955C14.7374 6.17409 15.3164 5.46559 15.5795 4.60526H19.6322C20.2111 4.60526 20.6848 4.1498 20.6848 3.59312C20.6322 2.98583 20.1585 2.53036 19.5796 2.53036ZM11.948 5.61741C10.7901 5.61741 9.84272 4.70648 9.84272 3.59312C9.84272 2.47976 10.7901 1.56883 11.948 1.56883C13.1059 1.56883 14.0532 2.47976 14.0532 3.59312C14.1059 4.70648 13.1585 5.61741 11.948 5.61741Z" fill="white"/>
</g>
<defs>
<clipPath id="clip0_46_3265">
<rect width="24" height="23.0769" fill="white"/>
</clipPath>
</defs>
</svg>
