<svg width="23" height="25" viewBox="0 0 23 25" fill="none" xmlns="http://www.w3.org/2000/svg">
<path d="M18.1313 1.5V3.7M4.86816 1.5V3.7" stroke="#001A72" stroke-width="2" stroke-linecap="round" stroke-linejoin="round"/>
<path d="M1 12.7677C1 7.97463 1 5.57811 2.38392 4.0891C3.76784 2.6001 5.99523 2.6001 10.45 2.6001H12.55C17.0048 2.6001 19.2322 2.6001 20.6161 4.0891C22 5.57811 22 7.97463 22 12.7677V13.3325C22 18.1256 22 20.5221 20.6161 22.0111C19.2322 23.5001 17.0048 23.5001 12.55 23.5001H10.45C5.99523 23.5001 3.76784 23.5001 2.38392 22.0111C1 20.5221 1 18.1256 1 13.3325V12.7677Z" stroke="#001A72" stroke-width="2" stroke-linecap="round" stroke-linejoin="round"/>
<path d="M1.55273 8.1001H21.4475" stroke="#001A72" stroke-width="2" stroke-linecap="round" stroke-linejoin="round"/>
</svg>
